<svg width="43" height="29" viewBox="0 0 43 29" fill="none" xmlns="http://www.w3.org/2000/svg">
<path d="M21.5 0C11.7273 0 3.38136 6.01267 0 14.5C3.38136 22.9873 11.7273 29 21.5 29C31.2727 29 39.6186 22.9873 43 14.5C39.6186 6.01267 31.2727 0 21.5 0ZM21.5 24.1667C16.1055 24.1667 11.7273 19.836 11.7273 14.5C11.7273 9.164 16.1055 4.83333 21.5 4.83333C26.8945 4.83333 31.2727 9.164 31.2727 14.5C31.2727 19.836 26.8945 24.1667 21.5 24.1667ZM21.5 8.7C18.2555 8.7 15.6364 11.2907 15.6364 14.5C15.6364 17.7093 18.2555 20.3 21.5 20.3C24.7445 20.3 27.3636 17.7093 27.3636 14.5C27.3636 11.2907 24.7445 8.7 21.5 8.7Z" fill="#ACACAC"/>
</svg>
