<svg width="32" height="33" viewBox="0 0 32 33" fill="none" xmlns="http://www.w3.org/2000/svg">
<path d="M16.6234 19.4835V15.0049H31.7144C31.8619 15.7848 31.9384 16.7081 31.9384 17.7079C31.9384 21.0678 31.0206 25.2226 28.0595 28.1824C25.1803 31.1804 21.5021 32.7797 16.6289 32.7797C7.59534 32.7797 0 25.4221 0 16.3899C0 7.35769 7.59534 0 16.6289 0C21.6264 0 25.1858 1.96132 27.8601 4.51678L24.6995 7.67592C22.7819 5.87713 20.1828 4.47853 16.6234 4.47853C10.0279 4.47853 4.86916 9.79431 4.86916 16.3899C4.86916 22.9854 10.0279 28.3012 16.6234 28.3012C20.9012 28.3012 23.3378 26.583 24.8989 25.0219C26.1651 23.7558 26.9982 21.9474 27.326 19.478L16.6234 19.4835Z" fill="#3A3A3A"/>
</svg>
