<svg width="120" height="63" viewBox="0 0 120 63" fill="none" xmlns="http://www.w3.org/2000/svg">
<path d="M10.1112 0.279597C10.8034 0.279597 11.4956 0.279597 12.0906 0.363205C12.0056 0.614031 11.9206 0.781248 12.2606 0.864856C13.56 1.53372 14.4222 2.79979 15.1144 3.98226C15.3694 6.0008 14.8594 8.03129 14.9444 10.0498C14.5193 10.8979 14.6894 11.9012 14.7744 12.8328C14.3493 14.0989 14.5193 15.3649 14.3493 16.7146C14.0943 17.2163 14.2643 17.8135 14.2643 18.3151C13.7421 20.1665 14.0093 22.1133 13.3171 23.8811C13.4021 24.7291 12.7949 25.5652 13.1471 26.3296C13.1471 27.1776 12.7221 28.0137 12.8071 28.9453C16.0859 28.8617 19.2797 28.2765 22.6435 28.0137C23.4207 28.1809 24.2829 27.3448 24.0278 26.4968C24.1978 25.0635 24.1128 23.6302 24.1978 22.197C24.1978 20.9309 24.72 19.6648 24.4529 18.4824C24.975 17.5507 24.8779 16.5474 25.0601 15.5322C25.1451 11.5667 26.0923 7.61325 26.0073 3.56421C25.9223 2.46536 26.6144 1.54567 27.1245 0.614031C27.0395 0.530422 26.8695 0.446814 26.7845 0.363205H31.1926C31.1076 1.37845 32.492 1.29484 33.087 1.37845C34.3014 1.46206 34.6414 2.89535 35.6736 3.397C36.7058 5.16472 36.3658 7.19521 36.7058 9.13015C36.7058 10.3126 36.2808 11.4951 36.4508 12.7492C36.7058 13.8481 36.1958 14.935 36.0258 16.0338C36.1108 16.7027 36.2808 17.4671 35.8558 18.136C35.7708 18.984 35.7708 19.9037 35.7708 20.7517C35.9408 21.337 35.6858 21.9342 35.4307 22.4358C35.0907 25.8041 35.1757 29.1842 34.8236 32.5525C34.5686 34.4874 34.9086 36.5179 34.5686 38.3692C34.9936 40.555 34.5686 42.8363 35.0907 44.9384C35.0907 45.4401 34.8357 45.8701 34.8357 46.3717C35.0907 49.4055 34.8357 52.5229 35.0057 55.6403C35.1757 56.99 35.4308 58.5905 34.4835 59.773C33.3663 59.1877 33.5363 60.621 32.7591 60.621C31.7269 60.7882 30.5126 61.1227 29.5654 60.5374C28.6181 60.5374 28.096 59.6058 27.0638 59.7849C26.8087 59.1161 26.6387 58.268 25.8494 57.9336C25.1572 57.5156 24.8172 56.8347 24.465 56.1659C23.8578 51.9496 24.465 47.6498 24.04 43.3499C24.21 40.2325 23.5178 37.1987 23.785 34.0813C22.0606 33.8305 20.3362 34.4157 18.6968 34.0813C16.7173 34.3321 14.6408 34.5829 12.6492 34.2485C12.3942 34.8338 12.042 35.431 12.2242 36.0162C11.8842 39.05 11.362 42.0002 11.362 44.9504C11.107 45.882 11.617 46.8853 11.022 47.7334C11.362 48.8322 10.8519 50.0027 11.192 51.1016C10.6698 53.8846 11.277 56.7511 10.937 59.5341C10.3298 60.0358 10.4148 60.8838 9.72259 61.3854C8.42321 61.1346 7.391 62.5679 6.10377 61.9707C4.98655 61.9707 4.20936 61.1227 3.165 60.9554C2.64282 60.2866 1.78062 59.8566 1.35559 59.1041C1.01557 58.1725 -0.283802 57.5872 0.0562212 56.4884C-0.0287845 51.5196 0.0562212 46.539 0.396244 41.5702C0.311238 38.9545 0.918422 36.3387 1.17344 33.7349C1.25845 30.5339 1.86563 27.3329 1.86563 24.1319C2.12065 21.1817 3.08 18.3151 3.165 15.365C3.77219 11.1487 4.28222 6.84883 4.54938 2.54897C4.54938 1.70094 5.07156 1.03207 5.41158 0.184044C5.6666 0.184044 6.27378 0.100436 6.62595 0.0168275C7.74317 -0.066781 8.95754 0.184044 10.1598 0.267653L10.1112 0.279597Z" fill="white"/>
<path d="M47.713 17.128C47.8928 17.5079 48.0502 18.1819 48.5222 17.7653C48.556 18.5128 49.3765 18.7701 49.2079 19.579C49.5563 20.3387 49.3877 21.2211 49.2191 22.0912C49.3877 22.6181 48.9156 23.0348 49.0842 23.6353C49.4102 24.8362 48.8482 25.9881 48.8594 27.1769C48.8932 29.1744 48.0389 31.0493 48.2637 33.0591C47.9715 33.9292 48.3087 34.9096 48.0726 35.8532C47.8591 39.0271 47.8703 44.5417 47.8478 47.7279C47.4207 48.5245 47.904 49.3578 47.668 50.2279C47.8478 51.9436 47.8928 53.794 47.994 55.5709C47.8366 56.0856 47.623 56.5881 47.2296 56.8577C46.7014 57.1273 46.6564 58.1567 45.8359 57.8135C45.0603 57.9238 44.2398 57.5807 43.408 57.5317C42.9809 56.9925 42.565 56.3797 41.9244 56.2695C40.8116 55.1665 40.7104 53.3896 39.9349 52.0171C40.0023 50.62 39.5527 49.1863 39.6764 47.7892C39.3054 43.3285 39.7438 36.5027 39.8225 32.0665C39.8 31.0983 40.1035 30.1547 39.9574 29.2601C40.2496 27.0543 40.3508 24.922 40.4519 22.7039C40.6767 20.5716 41.16 18.4515 41.1376 16.307C41.0364 15.78 41.486 15.6575 41.812 15.6084C43.8127 15.3511 45.9932 15.6942 47.7242 17.1158L47.713 17.128Z" fill="white"/>
<path d="M90.3528 24.2986C89.5681 32.2582 88.4386 40.1341 88.07 48.1535C88.1413 50.1732 87.3566 53.9379 84.301 52.8503C83.5163 53.2806 81.8874 54.2247 81.1027 54.655C75.2648 52.5635 66.835 54.1769 60.8545 54.8223C58.1556 55.8381 56.6574 53.3045 54.7313 52.0735C52.0324 44.6278 55.302 36.7399 54.66 29.0791C55.088 25.0276 55.2307 20.9762 55.2307 17.0083C57.0141 16.7932 58.857 17.1517 60.7118 17.1517C61.7106 18.2273 63.3395 18.7413 63.7675 20.2591C64.0528 24.454 64.1955 28.6489 63.4108 32.7721C62.8758 35.7241 62.9352 38.7119 62.8044 41.6878C62.745 43.0861 62.638 44.4724 62.4121 45.8588C63.3038 45.6437 64.8019 45.8588 65.9314 45.7393C67.1323 45.5959 67.9289 45.0461 67.1204 43.1458C67.1679 41.7953 67.0372 40.7197 67.1204 39.3812C67.2155 37.7439 67.5484 35.8316 67.6792 34.1943C67.8694 31.8997 67.6197 29.354 68.0716 27.0952C68.4164 25.3623 68.7849 22.7688 68.999 20.4861C69.0584 19.793 69.213 19.5778 69.2724 18.8847C69.8907 18.9086 70.39 18.8608 71.0202 18.8608C72.5659 18.8608 74.171 18.4783 75.5858 19.1476C76.7273 20.8805 78.6415 22.3266 77.8687 24.7886C77.6903 26.9757 77.4406 28.9357 77.1434 31.1109C76.8224 33.537 76.323 36.1065 76.0852 38.5446C75.8831 40.5285 75.5026 42.3332 75.5264 44.341C75.5264 44.9146 75.8593 45.7034 75.8831 46.2651C76.3943 46.2651 77.2028 46.3249 78.1065 46.2651C79.6164 46.1695 80.9838 45.6556 79.878 43.6239C79.985 42.3093 79.9375 40.3851 80.0801 38.3892C80.2347 36.1902 80.5676 33.9672 80.5914 33.7163C80.7222 32.0789 81.0313 30.334 81.1978 28.7087C81.5188 25.6013 81.7685 22.6374 82.3986 19.6496C84.4674 20.2232 86.5125 17.8449 88.284 19.6496" fill="white"/>
<path d="M47.7287 12.5529C46.8988 13.0157 46.53 11.8071 45.7232 12.0386C44.7896 11.3957 43.7753 10.7528 43.0722 9.73703C42.3 8.72128 42.1617 7.15265 42.5997 5.87974C43.0261 5.53258 43.4065 4.95399 43.7753 4.51683C44.3401 4.02824 45.1123 4.34968 45.7117 4.24682C46.5069 4.24682 47.1063 4.94113 47.8324 4.94113C48.8928 5.67402 49.8264 6.47119 50.5871 7.56409C51.3939 9.05558 52.2468 10.6242 52.2353 12.4114C51.9472 12.6943 51.6244 12.6557 51.3478 12.7072C50.103 12.5014 48.9389 12.2957 47.7172 12.5657L47.7287 12.5529Z" fill="white"/>
<path d="M107.947 19.7756C108.429 19.7057 109.006 20.2064 109.343 20.4742C109.884 20.3345 110.425 20.1365 110.967 20.0783C110.834 20.218 110.486 20.3461 110.69 20.614C111.171 20.9516 111.64 21.3476 112.121 21.6154C112.603 21.8832 112.398 22.5469 112.603 23.0127C113.144 23.3504 113.962 22.9428 114.431 23.4086C115.044 23.6066 115.718 23.6764 116.259 23.9442C116.945 24.608 117.955 24.8059 118.436 25.6793C119.05 26.2149 118.713 27.2745 119.459 27.8102C120 29.0095 119.459 30.535 120 31.7343V34.7968C119.663 35.6585 120.132 36.59 119.723 37.4634C119.447 38.1271 119.579 38.5929 119.242 39.2566C119.17 41.2594 118.557 43.1807 118.16 45.1137C117.546 46.3829 117.209 47.7104 116.728 48.9796C116.115 49.7831 115.369 50.5167 115.165 51.5065C114.479 51.8442 114.479 52.9038 113.541 52.9038C113.336 53.4977 112.386 53.2415 112.518 53.9634C111.496 53.8936 110.546 54.4991 109.668 54.895C107.635 55.2909 105.349 54.6621 103.377 55.058C103.509 54.9183 103.858 54.5922 103.509 54.5224C102.282 54.4525 101.332 53.4627 100.117 53.4627C99.0344 52.601 97.8797 51.8674 96.8572 50.9941C96.4483 50.0626 95.498 49.5968 94.9567 48.7933C94.3433 48.1296 94.2711 47.2563 94.0065 46.4645C92.6473 41.3409 93.2006 36.2873 93.9463 31.0822C94.2831 30.4185 94.223 29.6151 94.6921 29.0212C94.6921 28.6835 94.6921 28.2876 94.8966 28.0198C96.1235 26.0169 96.8693 23.6881 98.8419 22.2907C99.5877 22.151 98.9141 20.8236 100.201 21.2311C100.887 20.6372 102.029 20.7653 102.787 20.2297C104.483 20.0317 106.251 19.7639 107.947 19.7639V19.7756ZM105.578 26.8582C104.76 28.1857 104.411 28.0314 104.134 29.6267C103.798 30.1623 103.256 30.5582 103.184 31.222C102.847 32.1535 103.112 33.283 102.643 34.1564C102.366 35.6934 102.571 36.951 102.09 38.4764C102.09 40.5375 102.366 42.6102 102.499 44.6712C102.703 45.8706 103.184 47.0001 103.377 48.1995C103.653 48.6652 104.255 49.0029 104.808 49.0611C105.422 49.2009 106.54 49.6201 106.949 49.0262C108.717 47.3611 109.595 45.1021 110.341 42.9595C110.269 42.3656 110.678 41.9581 110.678 41.4224C110.75 40.3628 111.291 39.4196 111.291 38.4298C111.219 36.8346 112.049 35.6352 111.977 34.0399C111.905 32.6426 112.254 31.1754 112.049 29.7781C112.049 28.3109 111.845 27.3481 110.967 26.1488C110.221 25.683 109.403 25.0891 108.525 25.485C107.911 25.8227 106.925 25.6481 106.384 26.1837L105.578 26.8582Z" fill="white"/>
</svg>
