<svg width="101" height="53" viewBox="0 0 101 53" fill="none" xmlns="http://www.w3.org/2000/svg">
<path d="M8.51026 0.952979C9.09285 0.952979 9.67545 0.952979 10.1763 1.02335C10.1047 1.23446 10.0332 1.3752 10.3194 1.44557C11.413 2.00854 12.1387 3.07415 12.7213 4.06939C12.9359 5.76833 12.5066 7.47733 12.5782 9.17628C12.2205 9.89004 12.3636 10.7345 12.4351 11.5186C12.0774 12.5842 12.2205 13.6498 12.0774 14.7858C11.8627 15.208 12.0058 15.7107 12.0058 16.1329C11.5663 17.6911 11.7912 19.3297 11.2086 20.8176C11.2801 21.5313 10.7691 22.235 11.0655 22.8784C11.0655 23.5922 10.7078 24.2959 10.7793 25.08C13.539 25.0096 16.2271 24.5171 19.0583 24.2959C19.7124 24.4366 20.4381 23.7329 20.2235 23.0192C20.3665 21.8128 20.295 20.6065 20.3665 19.4001C20.3665 18.3345 20.806 17.2689 20.5812 16.2736C21.0207 15.4895 20.9389 14.6451 21.0922 13.7906C21.1638 10.453 21.961 7.12548 21.8895 3.71754C21.8179 2.79267 22.4005 2.01859 22.8298 1.23446C22.7582 1.16409 22.6152 1.09372 22.5436 1.02335H26.2538C26.1823 1.87785 27.3475 1.80748 27.8483 1.87785C28.8704 1.94822 29.1566 3.15457 30.0253 3.57679C30.8941 5.06463 30.6079 6.77363 30.8941 8.4022C30.8941 9.39744 30.5364 10.3927 30.6795 11.4482C30.8941 12.3731 30.4648 13.2879 30.3217 14.2128C30.3933 14.7758 30.5364 15.4191 30.1787 15.9821C30.1071 16.6959 30.1071 17.4699 30.1071 18.1837C30.2502 18.6763 30.0356 19.1789 29.8209 19.6012C29.5347 22.4361 29.6063 25.2811 29.3099 28.116C29.0952 29.7446 29.3814 31.4536 29.0952 33.0118C29.453 34.8515 29.0952 36.7716 29.5347 38.5409C29.5347 38.9631 29.3201 39.325 29.3201 39.7472C29.5347 42.3007 29.3201 44.9245 29.4632 47.5483C29.6063 48.6843 29.8209 50.0314 29.0237 51.0266C28.0834 50.534 28.2265 51.7404 27.5723 51.7404C26.7035 51.8811 25.6814 52.1626 24.8842 51.67C24.087 51.67 23.6475 50.8859 22.7787 51.0367C22.5641 50.4737 22.421 49.76 21.7566 49.4785C21.174 49.1266 20.8878 48.5536 20.5914 47.9906C20.0804 44.442 20.5914 40.8229 20.2337 37.2039C20.3768 34.58 19.7942 32.0266 20.019 29.4028C18.5677 29.1917 17.1163 29.6843 15.7365 29.4028C14.0705 29.6139 12.3227 29.825 10.6464 29.5435C10.4318 30.0361 10.1354 30.5388 10.2887 31.0314C10.0025 33.5848 9.56302 36.0679 9.56302 38.5509C9.34838 39.3351 9.77765 40.1795 9.27683 40.8933C9.56301 41.8181 9.13374 42.8033 9.41992 43.7282C8.98042 46.0705 9.49147 48.4832 9.20528 50.8256C8.69424 51.2478 8.76578 51.9616 8.18319 52.3838C7.08955 52.1727 6.22077 53.379 5.13735 52.8764C4.19702 52.8764 3.54288 52.1626 2.66388 52.0219C2.22438 51.4589 1.49869 51.097 1.14096 50.4637C0.854774 49.6795 -0.238867 49.1869 0.0473196 48.2621C-0.024227 44.0801 0.0473196 39.888 0.333506 35.706C0.261959 33.5044 0.773006 31.3028 0.987646 29.1112C1.05919 26.4171 1.57024 23.7229 1.57024 21.0287C1.78488 18.5456 2.59233 16.1329 2.66388 13.6498C3.17493 10.1011 3.60421 6.48209 3.82907 2.86304C3.82907 2.14928 4.26857 1.58631 4.55475 0.872556C4.76939 0.872556 5.28044 0.802185 5.57685 0.731815C6.51717 0.661444 7.53927 0.872556 8.55114 0.942926L8.51026 0.952979Z" fill="white"/>
<path d="M40.1585 15.1333C40.3099 15.4531 40.4423 16.0204 40.8397 15.6697C40.868 16.2988 41.5587 16.5154 41.4167 17.1962C41.71 17.8357 41.5681 18.5783 41.4262 19.3106C41.5681 19.7542 41.1708 20.1048 41.3127 20.6102C41.587 21.6211 41.114 22.5906 41.1235 23.5911C41.1519 25.2723 40.4329 26.8504 40.6221 28.542C40.3761 29.2743 40.6599 30.0995 40.4613 30.8937C40.2815 33.5651 40.291 38.2065 40.272 40.8883C39.9126 41.5587 40.3193 42.2601 40.1207 42.9924C40.272 44.4364 40.3099 45.9939 40.395 47.4895C40.2626 47.9227 40.0828 48.3456 39.7517 48.5725C39.3071 48.7994 39.2693 49.6658 38.5786 49.377C37.9259 49.4698 37.2353 49.181 36.5352 49.1398C36.1757 48.6859 35.8257 48.1702 35.2864 48.0774C34.3499 47.1491 34.2647 45.6535 33.612 44.4983C33.6687 43.3225 33.2903 42.1157 33.3944 40.9399C33.0822 37.1854 33.4511 31.4403 33.5174 27.7065C33.4984 26.8917 33.7539 26.0975 33.6309 25.3445C33.8769 23.488 33.962 21.6933 34.0471 19.8264C34.2363 18.0317 34.6431 16.2473 34.6242 14.4423C34.5391 13.9987 34.9175 13.8956 35.1918 13.8543C36.8758 13.6377 38.7111 13.9265 40.168 15.123L40.1585 15.1333Z" fill="white"/>
<path d="M76.0471 21.1703C75.3866 27.8697 74.4359 34.4986 74.1257 41.2482C74.1857 42.9482 73.5253 46.1168 70.9534 45.2014C70.2929 45.5635 68.922 46.3582 68.2615 46.7203C63.348 44.96 56.2529 46.3179 51.2193 46.8611C48.9477 47.7161 47.6867 45.5836 46.0656 44.5475C43.794 38.2808 46.5459 31.6418 46.0055 25.194C46.3658 21.7839 46.4859 18.3739 46.4859 15.0343C47.987 14.8533 49.5381 15.155 51.0992 15.155C51.9398 16.0603 53.3108 16.4929 53.671 17.7704C53.9112 21.3011 54.0313 24.8318 53.3708 28.3022C52.9205 30.7868 52.9705 33.3015 52.8605 35.8062C52.8104 36.9832 52.7204 38.15 52.5302 39.3168C53.2808 39.1358 54.5417 39.3168 55.4923 39.2163C56.5031 39.0955 57.1735 38.6328 56.4931 37.0334C56.5331 35.8968 56.423 34.9915 56.4931 33.8648C56.5731 32.4868 56.8533 30.8773 56.9634 29.4992C57.1235 27.5679 56.9134 25.4253 57.2936 23.5242C57.5838 22.0656 57.8941 19.8828 58.0742 17.9615C58.1242 17.3781 58.2543 17.197 58.3044 16.6136C58.8247 16.6337 59.245 16.5935 59.7754 16.5935C61.0763 16.5935 62.4273 16.2716 63.6182 16.8349C64.5789 18.2935 66.19 19.5106 65.5395 21.5828C65.3894 23.4236 65.1793 25.0732 64.9291 26.904C64.6589 28.946 64.2386 31.1087 64.0385 33.1607C63.8683 34.8305 63.5481 36.3494 63.5681 38.0393C63.5681 38.5222 63.8483 39.1861 63.8683 39.6589C64.2987 39.6589 64.9791 39.7091 65.7397 39.6589C67.0106 39.5784 68.1614 39.1458 67.2308 37.4358C67.3208 36.3293 67.2808 34.7098 67.4009 33.0299C67.531 31.1791 67.8112 29.3081 67.8312 29.0969C67.9413 27.7188 68.2014 26.2502 68.3415 24.8821C68.6117 22.2668 68.8219 19.7721 69.3523 17.2574C71.0935 17.7402 72.8148 15.7385 74.3058 17.2574" fill="white"/>
<path d="M40.1716 11.2819C39.4731 11.6715 39.1627 10.6542 38.4836 10.849C37.6978 10.3079 36.8441 9.76684 36.2524 8.91191C35.6024 8.05698 35.486 6.73671 35.8546 5.66535C36.2136 5.37316 36.5337 4.88618 36.8441 4.51823C37.3195 4.107 37.9694 4.37755 38.4739 4.29097C39.1433 4.29097 39.6477 4.87535 40.2589 4.87535C41.1514 5.4922 41.9371 6.16316 42.5774 7.08301C43.2565 8.33835 43.9743 9.65862 43.9646 11.1629C43.7221 11.4009 43.4505 11.3685 43.2177 11.4118C42.17 11.2386 41.1902 11.0655 40.1619 11.2927L40.1716 11.2819Z" fill="white"/>
<path d="M90.8558 17.3627C91.2608 17.3039 91.7467 17.7254 92.0302 17.9508C92.4858 17.8332 92.9414 17.6666 93.3969 17.6176C93.2856 17.7352 92.992 17.843 93.1641 18.0684C93.569 18.3526 93.9639 18.6858 94.3688 18.9112C94.7738 19.1367 94.6017 19.6953 94.7738 20.0873C95.2294 20.3715 95.9178 20.0285 96.3126 20.4206C96.829 20.5872 97.3959 20.646 97.8515 20.8714C98.4286 21.43 99.279 21.5966 99.6839 22.3317C100.2 22.7825 99.9168 23.6744 100.544 24.1252C101 25.1347 100.544 26.4186 101 27.428V30.0056C100.717 30.7309 101.111 31.5149 100.767 32.25C100.534 32.8086 100.646 33.2006 100.362 33.7593C100.301 35.445 99.7852 37.0621 99.4511 38.689C98.9348 39.7573 98.6513 40.8746 98.2463 41.9429C97.73 42.6191 97.1023 43.2366 96.9302 44.0696C96.3531 44.3538 96.3531 45.2457 95.5635 45.2457C95.3914 45.7455 94.5916 45.5299 94.7029 46.1376C93.8424 46.0787 93.0426 46.5884 92.3035 46.9216C90.5926 47.2548 88.669 46.7256 87.0087 47.0588C87.1201 46.9412 87.4137 46.6668 87.1201 46.608C86.0874 46.5492 85.2876 45.7161 84.2651 45.7161C83.354 44.9909 82.382 44.3734 81.5215 43.6384C81.1773 42.8543 80.3775 42.4623 79.9219 41.786C79.4056 41.2274 79.3449 40.4924 79.1221 39.8259C77.9781 35.5136 78.4438 31.2601 79.0715 26.8792C79.355 26.3206 79.3044 25.6443 79.6992 25.1445C79.6992 24.8603 79.6992 24.527 79.8713 24.3016C80.9039 22.6159 81.5316 20.6558 83.192 19.4797C83.8197 19.3621 83.2527 18.2448 84.336 18.5878C84.913 18.088 85.8748 18.1958 86.5126 17.745C87.9401 17.5784 89.4283 17.3529 90.8558 17.3529V17.3627ZM88.8613 23.324C88.1729 24.4412 87.8794 24.3114 87.6465 25.6541C87.363 26.105 86.9075 26.4382 86.8467 26.9968C86.5633 27.7809 86.786 28.7315 86.3911 29.4666C86.1583 30.7603 86.3304 31.8187 85.9254 33.1026C85.9254 34.8374 86.1583 36.5819 86.2697 38.3166C86.4418 39.3261 86.8467 40.2767 87.0087 41.2862C87.2416 41.6782 87.7478 41.9625 88.2135 42.0115C88.7298 42.1291 89.6713 42.4819 90.0155 41.9821C91.5038 40.5806 92.2428 38.6792 92.8705 36.8759C92.8098 36.3761 93.154 36.033 93.154 35.5822C93.2147 34.6904 93.6703 33.8965 93.6703 33.0634C93.6095 31.7207 94.3081 30.7113 94.2474 29.3686C94.1866 28.1925 94.4802 26.9576 94.3081 25.7815C94.3081 24.5466 94.136 23.7363 93.3969 22.7269C92.7693 22.3348 92.0808 21.835 91.3418 22.1682C90.8254 22.4524 89.9953 22.3054 89.5397 22.7563L88.8613 23.324Z" fill="white"/>
</svg>
