<svg width="32" height="32" viewBox="0 0 32 32" fill="none" xmlns="http://www.w3.org/2000/svg">
<path d="M25.824 10.9907C25.3746 10.4728 24.8192 10.0575 24.1954 9.77298C23.5715 9.48843 22.8938 9.34124 22.2082 9.34139L18.3854 9.34139L18.7074 7.38543C18.8213 6.69664 18.6839 5.98984 18.3201 5.39395C17.9563 4.79807 17.3905 4.35279 16.7257 4.13935C16.061 3.92591 15.3417 3.95852 14.699 4.23124C14.0564 4.50396 13.5331 4.99861 13.2248 5.62497L11.6665 8.78268L11.6665 23.7164L21.5373 23.7164C22.6907 23.7117 23.804 23.2931 24.6747 22.5368C25.5455 21.7806 26.1158 20.7368 26.282 19.5956L26.9577 14.8039C27.0532 14.1242 27.0014 13.4318 26.8058 12.7739C26.6102 12.116 26.2753 11.5078 25.824 10.9907Z" fill="#3A3A3A"/>
<path d="M4 14.133L4 18.9246C4.00152 20.195 4.50684 21.4129 5.40513 22.3112C6.30341 23.2095 7.5213 23.7148 8.79166 23.7163L9.75 23.7163L9.75 9.34131L8.79167 9.34131C7.5213 9.34283 6.30341 9.84815 5.40513 10.7464C4.50684 11.6447 4.00152 12.8626 4 14.133H4Z" fill="#3A3A3A"/>
</svg>
