<svg width="24" height="21" viewBox="0 0 24 21" fill="none" xmlns="http://www.w3.org/2000/svg">
<path d="M17.7825 6.18286V7.79011C17.7825 7.97863 17.8392 8.1629 17.9453 8.31963C18.0515 8.47636 18.2023 8.59851 18.3787 8.67065C18.5552 8.74279 18.7494 8.76166 18.9367 8.7249C19.124 8.68813 19.2961 8.59737 19.4312 8.46409L22.8948 5.04558C23.0759 4.86681 23.1776 4.62438 23.1776 4.3716C23.1776 4.11882 23.0759 3.87639 22.8948 3.69762L19.4312 0.279112C19.2961 0.145832 19.124 0.0550728 18.9367 0.0183066C18.7494 -0.0184596 18.5552 0.000418364 18.3787 0.0725541C18.2023 0.14469 18.0515 0.266845 17.9453 0.423576C17.8392 0.580306 17.7825 0.764577 17.7825 0.953091V3.241C14.5468 3.93881 12.3737 5.89211 10.5289 7.92262C8.41749 5.62614 5.86954 3.43833 1.76463 3.02364C1.7202 3.01411 1.46425 2.98647 1.4459 2.98647C1.07312 2.9872 0.714975 3.12973 0.445938 3.38441C0.176902 3.63909 0.0176811 3.98632 0.00138607 4.3539C-0.014909 4.72147 0.112976 5.08111 0.358447 5.35801C0.603918 5.6349 0.948083 5.80776 1.31937 5.84063C4.66511 6.12662 6.63161 7.89879 8.61066 10.0904C6.63451 12.283 4.66318 14.0618 1.31647 14.344C0.948646 14.3814 0.609206 14.5561 0.367684 14.8324C0.126161 15.1088 0.0008357 15.4658 0.0173796 15.8304C0.0339235 16.195 0.191084 16.5396 0.456669 16.7935C0.722254 17.0474 1.07616 17.1915 1.4459 17.1963C1.4826 17.1963 1.51641 17.1963 1.55311 17.1886C6.6036 16.7644 9.3167 13.6691 11.7304 10.9112C13.5761 8.80442 15.25 6.9455 17.7825 6.18286Z" fill="#C3C3C3"/>
<path d="M19.643 12.2489C19.5156 12.1122 19.3533 12.0191 19.1765 11.9814C18.9998 11.9437 18.8166 11.9631 18.6501 12.0371C18.4836 12.111 18.3413 12.2363 18.2412 12.3971C18.1411 12.5578 18.0876 12.7468 18.0876 12.9401V14.6022C16.9182 14.2056 15.8444 13.538 14.942 12.6468C14.6735 12.4008 14.3251 12.2788 13.973 12.3075C13.6209 12.3363 13.2938 12.5135 13.0631 12.8003L13.0403 12.8277C12.923 12.9734 12.8339 13.1426 12.7779 13.3255C12.722 13.5084 12.7004 13.7014 12.7143 13.8933C12.7283 14.0852 12.7776 14.2723 12.8594 14.4436C12.9411 14.615 13.0537 14.7673 13.1907 14.8916C14.5783 16.2359 16.2645 17.1752 18.0876 17.6194V19.9571C18.0876 20.1505 18.1411 20.3394 18.2412 20.5002C18.3413 20.6609 18.4836 20.7862 18.6501 20.8602C18.8166 20.9342 18.9998 20.9535 19.1765 20.9158C19.3533 20.8781 19.5156 20.785 19.643 20.6484L22.9107 17.1423C23.0815 16.959 23.1775 16.7103 23.1775 16.4511C23.1775 16.1918 23.0815 15.9432 22.9107 15.7598L19.643 12.2489Z" fill="#C3C3C3"/>
</svg>
