<svg width="25" height="26" viewBox="0 0 25 26" fill="none" xmlns="http://www.w3.org/2000/svg">
<path opacity="0.8" d="M24.5159 23.0831L19.5094 17.9157C20.8722 16.0353 21.6899 13.7107 21.6899 11.1936C21.6899 5.01936 16.8269 0 10.8449 0C4.863 0 0 5.01936 0 11.1936C0 17.3679 4.863 22.3872 10.8449 22.3872C13.1975 22.3872 15.378 21.6025 17.1568 20.2995L22.1919 25.4966C22.5075 25.8223 22.9379 26 23.3539 26C23.7699 26 24.2003 25.8371 24.5159 25.4966C25.1614 24.8303 25.1614 23.7494 24.5159 23.0831ZM3.28503 11.1936C3.28503 6.89977 6.6705 3.40547 10.8306 3.40547C14.9907 3.40547 18.3761 6.89977 18.3761 11.1936C18.3761 15.4875 14.9907 18.9818 10.8306 18.9818C6.6705 18.9818 3.28503 15.4875 3.28503 11.1936Z" fill="#C3C3C3"/>
</svg>
